{
    "asset" : {
        "generator" : "Khronos glTF Blender I/O v1.2.75",
        "version" : "2.0"
    },
    "scene" : 0,
    "scenes" : [
        {
            "name" : "Scene",
            "nodes" : [
                0
            ]
        }
    ],
    "nodes" : [
        {
            "mesh" : 0,
            "name" : "Plane"
        }
    ],
    "meshes" : [
        {
            "name" : "Plane",
            "primitives" : [
                {
                    "attributes" : {
                        "POSITION" : 0,
                        "NORMAL" : 1,
                        "TEXCOORD_0" : 2
                    },
                    "indices" : 3
                }
            ]
        }
    ],
    "accessors" : [
        {
            "bufferView" : 0,
            "componentType" : 5126,
            "count" : 4522,
            "max" : [
                4,
                0,
                1
            ],
            "min" : [
                -4,
                0,
                -1
            ],
            "type" : "VEC3"
        },
        {
            "bufferView" : 1,
            "componentType" : 5126,
            "count" : 4522,
            "type" : "VEC3"
        },
        {
            "bufferView" : 2,
            "componentType" : 5126,
            "count" : 4522,
            "type" : "VEC2"
        },
        {
            "bufferView" : 3,
            "componentType" : 5123,
            "count" : 26136,
            "type" : "SCALAR"
        }
    ],
    "bufferViews" : [
        {
            "buffer" : 0,
            "byteLength" : 54264,
            "byteOffset" : 0
        },
        {
            "buffer" : 0,
            "byteLength" : 54264,
            "byteOffset" : 54264
        },
        {
            "buffer" : 0,
            "byteLength" : 36176,
            "byteOffset" : 108528
        },
        {
            "buffer" : 0,
            "byteLength" : 52272,
            "byteOffset" : 144704
        }
    ],
    "buffers" : [
        {
            "byteLength" : 196976,
            "uri" : "data:application/octet-stream;base64,"
        }
    ]
}
